<svg xmlns="http://www.w3.org/2000/svg" viewBox="0 0 1000 1000"><defs><linearGradient id="A" x1="90.44" y1="500" x2="909.56" y2="500" gradientUnits="userSpaceOnUse"><stop offset="0" stop-color="#f1981c"/><stop offset="1" stop-color="#ea5237"/></linearGradient></defs><path d="M904.17 254a18 18 0 0 0-13.29-5.39h-97.66a18.39 18.39 0 0 0-18.67 18.68v170.23H605.07v-170.2a18.41 18.41 0 0 0-18.67-18.68H287.2q-21.54 0-28.73 20.83L91.16 729.8a21.78 21.78 0 0 0-.72 6.46 16 16 0 0 0 15.08 15.09h93.36q17.24 0 24.42-15.8l25.85-69.66H437.3l25.85 69.66a26.52 26.52 0 0 0 24.85 15.8h98.4a18.7 18.7 0 0 0 13.28-5 16.86 16.86 0 0 0 5.39-12.92V557.45h169.48V733.4a16.85 16.85 0 0 0 5.38 12.92 18.7 18.7 0 0 0 13.29 5h97.66a18.7 18.7 0 0 0 13.29-5 16.86 16.86 0 0 0 5.39-12.92V267.33a18.06 18.06 0 0 0-5.39-13.33zM279.3 558.17L343.23 375l63.9 183.13z" fill="url(#A)"/></svg>